<?xml version="1.0" encoding="utf-8"?>
<!-- Generator: Adobe Illustrator 27.5.0, SVG Export Plug-In . SVG Version: 6.00 Build 0)  -->
<svg version="1.1" xmlns="http://www.w3.org/2000/svg" xmlns:xlink="http://www.w3.org/1999/xlink" x="0px" y="0px"
	 viewBox="0 0 500 500" style="enable-background:new 0 0 500 500;" xml:space="preserve">
<g id="BACKGROUND">
	<rect style="fill:#F6F6F6;" width="500" height="500"/>
</g>
<g id="OBJECTS">
	<g>
		<path style="fill:#EFEFEF;" d="M234.91,219.81c0,1.616-51.704,2.926-102.916,2.926s-88.85-1.31-88.85-2.926
			c0-1.616,37.639-2.926,88.85-2.926S234.91,218.194,234.91,219.81z"/>
		<g>
			<path style="fill:#774C22;" d="M163.173,61.83c0,0-1.87-16.971,7.856-21.896c9.727-4.925,29.673-3.882,32.382,7.786
				c2.709,11.668,1.354,11.338,3.571,16.182c2.216,4.844-0.739,10.384-2.093,11.492c0,0,0.246,2.537,2.339,2.5
				c0,0-1.847,2.137-4.432,0.373c0,0-10.589,7.592-15.637,0.698l-5.91-0.698c0,0-3.817,6.57-13.298,1.048
				c0,0-3.571,2.851-6.279,1.004c0,0,2.955-0.781,2.093-2.053c0,0-5.294-2.38-4.063-8.044
				C160.933,64.559,163.445,65.834,163.173,61.83z"/>
			<path style="fill:#40210F;" d="M86.989,211.899l-8.438,4.378c-0.861,0.447-0.544,1.749,0.427,1.749h16.739v-6.127H86.989z"/>
			<path style="fill:#40210F;" d="M107.026,211.899l9.749,4.665c0.738,0.353,0.487,1.462-0.332,1.462H99.435l-0.142-6.127H107.026z"
				/>
			<polygon style="fill:#1B1B1B;" points="110.648,112.849 86.232,112.849 86.989,211.899 95.717,211.899 97.698,127.013 
				99.016,126.992 99.293,211.899 107.026,211.899 			"/>
			<polyline style="fill:none;stroke:#F4BEA2;stroke-width:6.8673;stroke-linejoin:round;stroke-miterlimit:10;" points="
				195.6,88.082 205.294,112.503 225.551,134.352 			"/>
			<circle style="fill:#F4BEA2;" cx="56.807" cy="134.726" r="5.031"/>
			<path style="fill:#F4BEA2;" d="M230.583,134.435c0,2.779-2.253,5.031-5.031,5.031c-2.779,0-5.032-2.253-5.032-5.031
				c0-2.779,2.253-5.032,5.032-5.032C228.33,129.404,230.583,131.656,230.583,134.435z"/>
			<circle style="fill:#F4BEA2;" cx="140.68" cy="133.218" r="5.031"/>
			<path style="fill:#F4BEA2;" d="M151.962,131.858c0,2.779-2.253,5.032-5.031,5.032c-2.779,0-5.032-2.253-5.032-5.032
				c0-2.779,2.253-5.032,5.032-5.032C149.709,126.826,151.962,129.079,151.962,131.858z"/>
			<path style="fill:#F4BEA2;" d="M98.416,82.046L98.416,82.046c-3.672,0-6.649-2.977-6.649-6.649v-7.08h13.298v7.08
				C105.065,79.069,102.088,82.046,98.416,82.046z"/>
			<path style="fill:#EAB096;" d="M91.767,69.925c0,0,2.738,3.935,7.015,3.935c4.277,0,6.284-3.441,6.284-3.441L91.767,69.925z"/>
			<path style="fill:#EAB096;" d="M85.114,57.469c0,2.046-1.659,3.705-3.705,3.705c-2.046,0-3.705-1.659-3.705-3.705
				c0-2.046,1.659-3.705,3.705-3.705C83.456,53.764,85.114,55.423,85.114,57.469z"/>
			<path style="fill:#EAB096;" d="M119.592,57.469c0,2.046-1.659,3.705-3.705,3.705c-2.046,0-3.705-1.659-3.705-3.705
				c0-2.046,1.659-3.705,3.705-3.705C117.933,53.764,119.592,55.423,119.592,57.469z"/>
			<path style="fill:#F4BEA2;" d="M115.665,54.207c0,9.955-7.469,17.358-16.683,17.358c-9.214,0-16.683-7.403-16.683-17.358
				c0-13.87,7.469-15.432,16.683-15.432C108.195,38.775,115.665,39.696,115.665,54.207z"/>
			<path style="fill:#2E2520;" d="M93.615,55.611c0,0.731-0.593,1.324-1.325,1.324s-1.325-0.593-1.325-1.324
				c0-0.732,0.593-1.324,1.325-1.324S93.615,54.879,93.615,55.611z"/>
			<path style="fill:#2E2520;" d="M106.949,55.611c0,0.731-0.593,1.324-1.324,1.324c-0.732,0-1.325-0.593-1.325-1.324
				c0-0.732,0.593-1.324,1.325-1.324C106.356,54.286,106.949,54.879,106.949,55.611z"/>
			<path style="fill:#E5A58C;" d="M98.974,64.192c-3.346,0-5.859-1.105-6.016-1.175c-0.275-0.124-0.397-0.446-0.274-0.721
				c0.124-0.276,0.449-0.399,0.722-0.275c0.054,0.024,5.452,2.385,10.752,0c0.277-0.124,0.599,0.001,0.722,0.274
				c0.124,0.275,0.001,0.599-0.274,0.722C102.646,63.898,100.699,64.192,98.974,64.192z"/>
			<path style="fill:#2E2520;" d="M103.978,49.216v1.624c0,0.337,0.326,0.574,0.649,0.478c0.981-0.292,2.922-0.684,4.747,0.031
				c0.248,0.097,0.528,0.007,0.647-0.231l0.445-0.889c0.096-0.191,0.064-0.426-0.09-0.574c-0.573-0.55-2.258-1.675-5.989-0.935
				C104.152,48.765,103.978,48.977,103.978,49.216z"/>
			<path style="fill:#2E2520;" d="M94.607,49.216v1.624c0,0.337-0.326,0.574-0.649,0.478c-0.981-0.292-2.922-0.684-4.747,0.031
				c-0.248,0.097-0.528,0.007-0.647-0.231l-0.445-0.889c-0.095-0.191-0.064-0.426,0.09-0.574c0.573-0.55,2.258-1.675,5.989-0.935
				C94.432,48.765,94.607,48.977,94.607,49.216z"/>
			<path style="fill:#40210F;" d="M107.651,34.04h-8.232h-1.175h-8.232c-4.751,0-8.602,3.144-8.602,8.301l0.314,11.424l1.604,0.522
				l1.786-8.224c0.26-1.456,1.121-2.703,2.336-3.382c1.027-0.575,2.212-0.688,3.32-0.334c1.276,0.408,4.284,0.875,7.474,0.972v0.021
				c0.196,0,0.391-0.007,0.587-0.01c0.196,0.003,0.391,0.01,0.587,0.01v-0.021c3.19-0.097,6.198-0.564,7.474-0.972
				c1.109-0.354,2.293-0.241,3.32,0.334c1.215,0.679,2.076,1.926,2.336,3.382l1.786,8.224l1.604-0.522l0.314-11.424
				C116.253,37.184,112.402,34.04,107.651,34.04z"/>
			<path style="fill:#F4BEA2;" d="M184.644,86.794L184.644,86.794c-2.645,0-4.79-2.145-4.79-4.79v-8.366h9.58v8.366
				C189.434,84.649,187.289,86.794,184.644,86.794z"/>
			<path style="fill:#E5A58C;" d="M179.854,75.179c0,0,1.972,3.771,5.053,3.771c3.081,0,4.527-3.297,4.527-3.297L179.854,75.179z"/>
			<circle style="fill:#EAB096;" cx="167.726" cy="63.244" r="3.55"/>
			<path style="fill:#EAB096;" d="M204.313,63.244c0,1.961-1.589,3.55-3.55,3.55c-1.961,0-3.55-1.589-3.55-3.55
				c0-1.961,1.589-3.55,3.55-3.55C202.723,59.694,204.313,61.283,204.313,63.244z"/>
			<path style="fill:#F4BEA2;" d="M200.55,60.118c0,9.539-7.157,16.633-15.986,16.633s-15.986-7.094-15.986-16.633
				c0-13.29,7.157-14.787,15.986-14.787S200.55,46.213,200.55,60.118z"/>
			<path style="fill:#2E2520;" d="M179.421,61.463c0,0.701-0.568,1.269-1.269,1.269s-1.269-0.568-1.269-1.269
				c0-0.701,0.568-1.269,1.269-1.269S179.421,60.762,179.421,61.463z"/>
			<path style="fill:#2E2520;" d="M192.198,61.463c0,0.701-0.568,1.269-1.269,1.269s-1.269-0.568-1.269-1.269
				c0-0.701,0.568-1.269,1.269-1.269S192.198,60.762,192.198,61.463z"/>
			<path style="fill:#E5A58C;" d="M184.556,69.686c-3.206,0-5.614-1.059-5.765-1.127c-0.263-0.119-0.38-0.428-0.262-0.692
				c0.119-0.263,0.429-0.379,0.691-0.263c0.052,0.023,5.224,2.285,10.303,0c0.262-0.119,0.573-0.002,0.692,0.263
				c0.119,0.263,0.001,0.573-0.263,0.692C188.075,69.404,186.21,69.686,184.556,69.686z"/>
			<path style="fill:#2E2520;" d="M180.453,56.124l-0.081,0.767c0,0.323-0.312,0.55-0.622,0.458c-0.94-0.28-2.8-0.655-4.549,0.03
				c-0.237,0.093-0.506,0.007-0.62-0.222l-0.213-0.297c-0.092-0.183-0.061-0.408,0.086-0.55c0.549-0.527,2.031-1.372,5.607-0.663
				C180.285,55.692,180.453,55.895,180.453,56.124z"/>
			<path style="fill:#2E2520;" d="M188.436,56.124l0.081,0.767c0,0.323,0.312,0.55,0.622,0.458c0.94-0.28,2.8-0.655,4.549,0.03
				c0.237,0.093,0.506,0.007,0.62-0.222l0.214-0.297c0.092-0.183,0.061-0.408-0.087-0.55c-0.549-0.527-2.031-1.372-5.607-0.663
				C188.604,55.692,188.436,55.895,188.436,56.124z"/>
			<path style="fill:#E7E8E0;" d="M112.521,117.824H84.119l-3.461-33.069c0-4.485,3.669-8.154,8.154-8.154h19.94
				c4.485,0,8.154,3.669,8.154,8.154L112.521,117.824z"/>
			<polyline style="fill:none;stroke:#E7E8E0;stroke-width:7.9604;stroke-linejoin:round;stroke-miterlimit:10;" points="
				85.748,82.351 73.696,109.983 59.303,131.643 			"/>
			<polyline style="fill:none;stroke:#E7E8E0;stroke-width:7.9604;stroke-linejoin:round;stroke-miterlimit:10;" points="
				112.221,83.074 121.223,108.027 138.881,130.877 			"/>
			<polyline style="fill:none;stroke:#F4BEA2;stroke-width:6.8673;stroke-linejoin:round;stroke-miterlimit:10;" points="
				173.665,87.101 163.078,111.23 147.93,130.676 			"/>
			<g>
				<path style="fill:#F4BEA2;" d="M193.872,114.613l5.268-25.454c0-3.363-2.751-6.114-6.114-6.114h-17.601
					c-3.363,0-6.114,2.751-6.114,6.114l5.279,25.517L193.872,114.613z"/>
			</g>
			<path style="fill:#FFFFFD;" d="M193.826,114.676h-9.182h-0.872h-9.182c0,0-21.206,20.16-16.578,103.817h25.76h0.872h25.932
				C215.203,134.837,193.826,114.676,193.826,114.676z"/>
			<path style="fill:#FFFFFD;" d="M174.59,114.676l-4.197-17.196l4.747-3.731c1.068-0.839,2.519-1.003,3.747-0.423l4.971,2.347
				l5.301-2.469c1.104-0.514,2.392-0.433,3.423,0.215l5.553,3.492l-4.309,17.766H174.59z"/>
			<path style="fill:#40210F;" d="M86.195,41.029c-0.419-1.46-2.983-9.876,5.572-12.063c8.554-2.187,18.03,7.885,26.405,1.889
				c0,0,0.258,10.076-11.28,10.496C95.354,41.771,86.195,41.029,86.195,41.029z"/>
			<path style="fill:#40210F;" d="M106.075,32.18c0,0,5.097,0.178,7.353-3.412c0,0,2.009,3.247-3.06,6.267
				C105.298,38.056,106.075,32.18,106.075,32.18z"/>
			<path style="fill:#E5A58C;" d="M98.427,57.517l-1.04,1.855c-0.164,0.293,0.029,0.67,0.345,0.67h2.198
				c0.324,0,0.517-0.396,0.334-0.688l-1.158-1.855C98.941,57.235,98.58,57.244,98.427,57.517z"/>
			<path style="fill:#E5A58C;" d="M184.24,63.036l-1.04,1.855c-0.164,0.293,0.029,0.67,0.345,0.67h2.198
				c0.324,0,0.517-0.396,0.334-0.688l-1.159-1.855C184.753,62.753,184.393,62.763,184.24,63.036z"/>
			<polygon style="fill:#E7E8E0;" points="91.71,74.155 98.822,75.653 105.141,74.262 104.99,78.428 91.845,78.535 			"/>
			
				<line style="fill:none;stroke:#1B1B1B;stroke-width:1.9901;stroke-miterlimit:10;" x1="87.201" y1="76.601" x2="89.478" y2="118.819"/>
			
				<line style="fill:none;stroke:#1B1B1B;stroke-width:1.9901;stroke-miterlimit:10;" x1="109.34" y1="76.601" x2="107.064" y2="118.819"/>
			
				<line style="fill:none;stroke:#FFFFFD;stroke-width:0.995;stroke-miterlimit:10;" x1="98.271" y1="80.395" x2="98.271" y2="117.824"/>
			<g>
				<path style="fill:#1B1B1B;" d="M100.474,79.598c0,1.127-0.907,2.041-2.024,2.041c-1.118,0-2.023-0.915-2.023-2.042
					c0-1.128,0.906-2.041,2.024-2.041C99.569,77.556,100.474,78.47,100.474,79.598z"/>
				<path style="fill:#1B1B1B;" d="M97.858,78.666l-4.33-2.643c-0.587-0.358-1.336,0.068-1.336,0.759l-0.002,5.644
					c0,0.701,0.768,1.126,1.354,0.748l4.313-2.781L97.858,78.666z"/>
				<path style="fill:#1B1B1B;" d="M99.11,78.667l4.331-2.64c0.587-0.358,1.335,0.069,1.335,0.76l-0.001,5.644
					c0,0.701-0.769,1.126-1.354,0.748l-4.311-2.783L99.11,78.667z"/>
			</g>
			<path style="fill:#774C22;" d="M182.443,44.179c0,0,7.881,10.917,19.744,11.247c0,0,0.276-8.794-6.588-11.727
				C188.735,40.766,182.443,44.179,182.443,44.179z"/>
			<path style="fill:#774C22;" d="M185.811,45.33c0,0-6.848-0.815-8.929,4.6c-1.687,4.389-5.591,8.137-10.985,3.834
				c-5.393-4.304,8.418-10.293,8.418-10.293L185.811,45.33z"/>
			<g>
				<path style="fill:#FFFFFF;" d="M196.777,39.464c-0.265-0.987-1.519-4.17-3.033-3.14c-1.189,0.809,0.274,4.379,1.252,4.523
					c-1.195-0.404-4.079-0.87-3.673,1.066c0.286,1.362,3.62,1.848,4.799,1.409c-1.608,0.401-2.509,3.72-1.203,4.433
					c2.274,1.24,3.562-2.458,3.178-4.202c0.851,1.363,2.262,3.404,3.784,2.363c0.585-0.4,0.615-1.545,0.576-1.755
					c-0.099-0.542-0.683-1.186-1.298-1.576c1.156,0.22,2.596,0.12,2.804-0.926c0.423-2.131-3.699-2.64-4.847-2.168
					c1.243-0.713,1.721-2.636,0.509-3.335C197.556,34.962,196.267,37.763,196.777,39.464z"/>
				<path style="fill:#FFC6BD;" d="M198.052,40.195c0.79,0.253,1.225,1.097,0.972,1.887c-0.253,0.79-1.098,1.225-1.887,0.972
					c-0.79-0.253-1.225-1.097-0.972-1.887C196.418,40.377,197.263,39.942,198.052,40.195z"/>
			</g>
			<g>
				<circle style="fill:#FFFFFF;" cx="180.04" cy="82.755" r="1.052"/>
				<circle style="fill:#FFFFFF;" cx="181.615" cy="84.859" r="1.052"/>
				<circle style="fill:#FFFFFF;" cx="184.663" cy="85.804" r="1.052"/>
				<path style="fill:#FFFFFF;" d="M190.3,82.547c0,0.581-0.471,1.052-1.052,1.052c-0.581,0-1.052-0.471-1.052-1.052
					s0.471-1.052,1.052-1.052C189.829,81.494,190.3,81.966,190.3,82.547z"/>
				<path style="fill:#FFFFFF;" d="M188.462,84.752c0,0.581-0.471,1.052-1.052,1.052s-1.052-0.471-1.052-1.052
					c0-0.581,0.471-1.052,1.052-1.052S188.462,84.171,188.462,84.752z"/>
			</g>
		</g>
	</g>
	<g>
		<path style="fill:#EFEFEF;" d="M451.625,450.979c0,1.616-48.055,2.926-95.652,2.926s-82.579-1.31-82.579-2.926
			c0-1.616,34.982-2.926,82.579-2.926S451.625,449.363,451.625,450.979z"/>
		<g>
			<polyline style="fill:none;stroke:#F4BEA2;stroke-width:6.8673;stroke-linejoin:round;stroke-miterlimit:10;" points="
				326.459,315.288 339.311,324.302 352.798,303.454 			"/>
			<path style="fill:#F4BEA2;" d="M354.291,308.853c-2.779,0.023-5.05-2.21-5.074-4.989c-0.023-2.779,2.21-5.05,4.989-5.074
				c2.779-0.023,5.05,2.21,5.074,4.989C359.303,306.557,357.069,308.829,354.291,308.853z"/>
			<polyline style="fill:none;stroke:#E7E8E0;stroke-width:7.9604;stroke-linejoin:round;stroke-miterlimit:10;" points="
				395.489,312.079 376.182,324.506 357.352,306.292 			"/>
			<g>
				<path style="fill:#774C22;" d="M302.161,291.173c0,0-2.53-16.885,6.998-22.185c9.528-5.3,29.499-5.035,32.66,6.519
					c3.161,11.554,1.795,11.277,4.198,16.031c2.403,4.754-0.334,10.405-1.644,11.565c0,0,0.345,2.525,2.435,2.407
					c0,0-1.762,2.207-4.415,0.545c0,0-10.285,7.999-15.598,1.306l-5.933-0.467c0,0-3.558,6.713-13.247,1.565
					c0,0-3.457,2.988-6.236,1.248c0,0,2.922-0.895,2.012-2.133c0,0-5.383-2.172-4.373-7.879S302.588,295.164,302.161,291.173z"/>
				<path style="fill:#F4BEA2;" d="M324.587,315.283L324.587,315.283c-2.643,0.103-4.87-1.956-4.973-4.6l-0.326-8.359l9.572-0.373
					l0.326,8.359C329.289,312.953,327.23,315.18,324.587,315.283z"/>
				<path style="fill:#E5A58C;" d="M319.348,303.863c0,0,2.118,3.691,5.196,3.571c3.078-0.12,4.395-3.471,4.395-3.471
					L319.348,303.863z"/>
				<path style="fill:#EAB096;" d="M310.312,292.271c0.076,1.959-1.45,3.609-3.409,3.686s-3.609-1.45-3.686-3.409
					c-0.076-1.959,1.45-3.609,3.409-3.685C308.586,288.785,310.236,290.312,310.312,292.271z"/>
				<path style="fill:#EAB096;" d="M343.324,290.984c0.076,1.959-1.45,3.609-3.409,3.686c-1.959,0.076-3.609-1.45-3.685-3.409
					c-0.076-1.959,1.45-3.609,3.409-3.685C341.598,287.499,343.248,289.025,343.324,290.984z"/>
				<path style="fill:#F4BEA2;" d="M339.442,288.007c0.371,9.532-6.504,16.899-15.326,17.242
					c-8.822,0.344-16.25-6.466-16.622-15.998c-0.517-13.28,6.576-15.055,15.398-15.398
					C331.714,273.51,338.901,274.113,339.442,288.007z"/>
				<path style="fill:#2E2520;" d="M318.382,290.174c0.027,0.7-0.518,1.29-1.219,1.318c-0.7,0.027-1.29-0.518-1.318-1.219
					c-0.027-0.7,0.518-1.29,1.219-1.318C317.765,288.928,318.354,289.474,318.382,290.174z"/>
				<path style="fill:#2E2520;" d="M331.149,289.677c0.027,0.7-0.518,1.29-1.219,1.318c-0.7,0.027-1.29-0.518-1.318-1.219
					c-0.027-0.7,0.518-1.29,1.219-1.318C330.532,288.431,331.121,288.976,331.149,289.677z"/>
				<path style="fill:#E5A58C;" d="M323.833,298.19c-3.203,0.125-5.651-0.839-5.804-0.901c-0.267-0.108-0.397-0.413-0.289-0.681
					c0.109-0.267,0.414-0.396,0.681-0.289c0.053,0.021,5.309,2.08,10.295-0.401c0.257-0.129,0.573-0.024,0.701,0.235
					c0.129,0.259,0.024,0.572-0.235,0.701C327.339,297.772,325.485,298.126,323.833,298.19z"/>
				<path style="fill:#2E2520;" d="M319.205,284.798l-0.051,0.77c0.013,0.323-0.29,0.562-0.604,0.482
					c-0.951-0.243-2.823-0.546-4.544,0.207c-0.234,0.102-0.505,0.026-0.628-0.197l-0.225-0.288c-0.099-0.18-0.077-0.406,0.065-0.553
					c0.528-0.548,1.976-1.45,5.577-0.88C319.021,284.374,319.196,284.57,319.205,284.798z"/>
				<path style="fill:#2E2520;" d="M327.182,284.488l0.111,0.764c0.012,0.323,0.333,0.537,0.639,0.433
					c0.929-0.316,2.772-0.764,4.547-0.147c0.241,0.084,0.506-0.013,0.611-0.245l0.202-0.305c0.084-0.187,0.045-0.41-0.108-0.546
					c-0.569-0.505-2.083-1.292-5.629-0.444C327.333,284.05,327.173,284.259,327.182,284.488z"/>
				<path style="fill:#E5A58C;" d="M323.258,291.558l-0.967,1.894c-0.153,0.299,0.055,0.668,0.371,0.656l2.196-0.086
					c0.324-0.013,0.501-0.415,0.307-0.7l-1.23-1.808C323.76,291.256,323.4,291.279,323.258,291.558z"/>
				<path style="fill:#774C22;" d="M320.728,272.785c0,0,8.3,10.602,20.167,10.47c0,0-0.066-8.798-7.039-11.461
					C326.883,269.13,320.728,272.785,320.728,272.785z"/>
				<path style="fill:#774C22;" d="M324.139,273.805c0,0-6.874-0.548-8.743,4.944c-1.515,4.452-5.27,8.349-10.827,4.259
					c-5.557-4.09,8.011-10.612,8.011-10.612L324.139,273.805z"/>
				<g>
					<path style="fill:#FFFFFF;" d="M334.868,267.516c-0.303-0.976-1.68-4.108-3.152-3.02c-1.157,0.855,0.444,4.365,1.427,4.471
						c-1.21-0.357-4.11-0.711-3.629,1.208c0.339,1.35,3.689,1.706,4.85,1.222c-1.591,0.463-2.362,3.815-1.03,4.477
						c2.321,1.15,3.463-2.595,3.012-4.322c0.904,1.329,2.392,3.314,3.873,2.214c0.569-0.422,0.554-1.568,0.507-1.776
						c-0.12-0.537-0.728-1.159-1.359-1.524c1.164,0.175,2.599,0.018,2.766-1.035c0.34-2.145-3.799-2.494-4.927-1.978
						c1.214-0.761,1.617-2.701,0.379-3.352C335.471,262.987,334.292,265.836,334.868,267.516z"/>
					<path style="fill:#FFC6BD;" d="M336.171,268.196c0.799,0.222,1.267,1.049,1.045,1.848c-0.222,0.799-1.049,1.267-1.848,1.045
						c-0.799-0.222-1.267-1.049-1.045-1.848C334.545,268.443,335.372,267.975,336.171,268.196z"/>
				</g>
			</g>
			<g>
				<path style="fill:#F4BEA2;" d="M396.633,312.351l-6.855-0.838c-1.752-0.214-2.999-1.808-2.784-3.56l1.278-10.456l13.2,1.614
					l-1.278,10.455C399.979,311.319,398.385,312.565,396.633,312.351z"/>
				<path style="fill:#EAB096;" d="M388.077,299.093c0,0,2.24,4.238,6.485,4.757c4.245,0.519,6.655-2.653,6.655-2.653
					L388.077,299.093z"/>
				<path style="fill:#EAB096;" d="M382.985,285.922c-0.248,2.031-2.096,3.476-4.127,3.228c-2.031-0.248-3.476-2.096-3.228-4.127
					c0.248-2.031,2.096-3.476,4.127-3.228C381.788,282.044,383.233,283.891,382.985,285.922z"/>
				<path style="fill:#EAB096;" d="M417.207,290.107c-0.248,2.031-2.096,3.476-4.127,3.228c-2.031-0.248-3.476-2.096-3.228-4.127
					c0.248-2.031,2.096-3.476,4.127-3.228C416.011,286.228,417.456,288.076,417.207,290.107z"/>
				<path style="fill:#F4BEA2;" d="M413.705,286.392c-1.208,9.881-9.521,16.323-18.667,15.205
					c-9.146-1.118-15.661-9.373-14.453-19.254c1.683-13.767,9.287-14.411,18.433-13.293
					C408.164,270.168,415.467,271.988,413.705,286.392z"/>
				<path style="fill:#2E2520;" d="M391.648,285.109c-0.089,0.726-0.749,1.243-1.475,1.154s-1.243-0.749-1.154-1.475
					c0.089-0.726,0.749-1.243,1.475-1.154C391.22,283.723,391.737,284.383,391.648,285.109z"/>
				<path style="fill:#2E2520;" d="M404.883,286.728c-0.089,0.726-0.749,1.243-1.475,1.154c-0.726-0.089-1.243-0.749-1.154-1.476
					c0.089-0.726,0.749-1.243,1.475-1.154C404.455,285.341,404.972,286.002,404.883,286.728z"/>
				<path style="fill:#E5A58C;" d="M395.926,294.278c-3.321-0.406-5.682-1.808-5.829-1.897c-0.258-0.156-0.34-0.491-0.184-0.749
					c0.156-0.259,0.494-0.341,0.75-0.185c0.051,0.03,5.122,3.029,10.672,1.305c0.29-0.089,0.595,0.074,0.684,0.36
					c0.089,0.288-0.072,0.594-0.36,0.684C399.607,294.432,397.638,294.487,395.926,294.278z"/>
				<path style="fill:#2E2520;" d="M402.71,280.019l-0.197,1.612c-0.041,0.335,0.254,0.609,0.586,0.553
					c1.009-0.17,2.983-0.324,4.708,0.608c0.234,0.126,0.523,0.071,0.67-0.151l0.549-0.829c0.118-0.178,0.115-0.415-0.02-0.581
					c-0.502-0.615-2.038-1.937-5.832-1.655C402.939,279.593,402.739,279.783,402.71,280.019z"/>
				<path style="fill:#2E2520;" d="M393.409,278.882l-0.197,1.612c-0.041,0.335-0.393,0.53-0.702,0.395
					c-0.939-0.409-2.817-1.034-4.716-0.545c-0.258,0.066-0.525-0.057-0.614-0.308l-0.334-0.937
					c-0.072-0.201-0.012-0.431,0.159-0.559c0.635-0.476,2.444-1.389,6.059-0.201C393.291,278.414,393.438,278.645,393.409,278.882z"
					/>
				<path style="fill:#40210F;" d="M408.199,265.402l-8.171-0.999l-1.166-0.143l-8.172-0.999c-4.716-0.577-8.92,2.077-9.546,7.195
					l-1.074,11.377l1.529,0.713l2.771-7.947c0.435-1.414,1.44-2.547,2.729-3.074c1.089-0.446,2.279-0.414,3.336,0.072
					c1.217,0.56,4.146,1.388,7.301,1.872l-0.003,0.021c0.195,0.024,0.389,0.04,0.584,0.061c0.194,0.027,0.387,0.057,0.582,0.081
					l0.003-0.021c3.178,0.291,6.22,0.193,7.536-0.057c1.143-0.217,2.306,0.039,3.255,0.734c1.123,0.822,1.827,2.164,1.908,3.641
					l0.775,8.38l1.656-0.323l1.699-11.301C416.356,269.567,412.914,265.978,408.199,265.402z"/>
				<path style="fill:#40210F;" d="M386.053,269.735c-0.239-1.5-1.762-10.164,6.995-11.297c8.757-1.133,16.939,10.015,25.981,5.08
					c0,0-0.967,10.033-12.471,9.049C395.054,271.583,386.053,269.735,386.053,269.735z"/>
				<path style="fill:#40210F;" d="M406.86,263.364c0,0,5.038,0.796,7.713-2.494c0,0,1.601,3.467-3.798,5.85
					C405.376,269.102,406.86,263.364,406.86,263.364z"/>
				<path style="fill:#E5A58C;" d="M396.194,287.586l-1.257,1.715c-0.199,0.271-0.052,0.668,0.261,0.707l2.182,0.267
					c0.322,0.039,0.561-0.33,0.415-0.642l-0.925-1.982C396.738,287.368,396.379,287.334,396.194,287.586z"/>
			</g>
			<path style="fill:#40210F;" d="M385.505,443.068l-8.438,4.378c-0.861,0.447-0.544,1.749,0.427,1.749h16.739v-6.127H385.505z"/>
			<path style="fill:#40210F;" d="M409.114,439.77l-6.331,7.091c-0.646,0.724,0.114,1.828,1.021,1.483l15.646-5.95l-2.178-5.727
				L409.114,439.77z"/>
			<g>
				<polygon points="389.742,346.621 389.165,389.879 409.114,439.77 417.272,436.667 400.845,390.304 401.405,346.621 				"/>
			</g>
			<path style="fill:#F4BEA2;" d="M360.849,364.627c0,2.779-2.253,5.031-5.031,5.031s-5.031-2.253-5.031-5.031
				c0-2.779,2.253-5.032,5.031-5.032S360.849,361.848,360.849,364.627z"/>
			<path style="fill-rule:evenodd;clip-rule:evenodd;fill:#FFFFFF;" d="M325.254,345.663c21.717,0,25.486,55.846,27.293,103.023
				h-54.587C299.77,401.509,306.442,345.663,325.254,345.663z"/>
			<path style="fill-rule:evenodd;clip-rule:evenodd;fill:#FFFFFF;" d="M333.98,317.379c-1.387-2.148-5.773,4.855-5.773,9
				c0,4.145,2.437,7.504,5.443,7.504c3.007,0,7.007-2.147,5.445-7.504C338.095,322.953,335.633,319.938,333.98,317.379z"/>
			<path style="fill-rule:evenodd;clip-rule:evenodd;fill:#FFFFFF;" d="M333.98,319.452l-0.567,30.062h-11.059l-4.733-34.542
				C316.507,306.829,333.826,310.828,333.98,319.452z"/>
			<path style="fill:#F4BEA2;" d="M366.261,360.61c-0.187,2.772-2.586,4.869-5.358,4.682c-2.772-0.187-4.869-2.586-4.682-5.358
				c0.187-2.772,2.586-4.869,5.358-4.682C364.351,355.438,366.447,357.837,366.261,360.61z"/>
			<path style="fill:#1B1B1B;" d="M403.694,344.088c0,6.854-4.82,12.411-10.766,12.411c-5.946,0-9.595-5.639-9.595-12.493
				s3.649-12.329,9.595-12.329C398.874,331.677,403.694,337.233,403.694,344.088z"/>
			<polygon style="fill:#1B1B1B;" points="384.971,346.621 385.505,443.068 394.233,443.068 397.629,346.621 			"/>
			<g>
				<path style="fill:#E7E8E0;" d="M404.521,318.136c-0.377-6.95-1.867-11.337-6.092-11.621l-9.681-0.652
					c-4.08-0.275-5.667,6.705-5.935,10.679l-1.661,31.695l25.04,1.315L404.521,318.136z"/>
			</g>
			<polyline style="fill:none;stroke:#F4BEA2;stroke-width:6.8673;stroke-linejoin:round;stroke-miterlimit:10;" points="
				324.469,318.273 334.163,342.695 354.42,364.543 			"/>
			<path style="fill:#F4BEA2;" d="M351.367,297.186c2.701-0.654,5.42,1.006,6.074,3.707c0.654,2.701-1.006,5.42-3.707,6.074
				c-2.701,0.654-5.42-1.006-6.074-3.707C347.006,300.559,348.666,297.84,351.367,297.186z"/>
			<path style="fill-rule:evenodd;clip-rule:evenodd;fill:#F4BEA2;" d="M318.871,324.086l16.714-4.396
				c0,0-6.222-12.272-8.658-10.157c0,0-3.516-1.549-7.15,0.785C316.143,312.651,317.592,314.755,318.871,324.086z"/>
			<g>
				<path style="fill:#FFFFFF;" d="M321.564,310.229c0.17,0.556-0.143,1.144-0.699,1.314c-0.556,0.17-1.144-0.143-1.314-0.699
					c-0.17-0.556,0.143-1.144,0.699-1.314C320.806,309.36,321.395,309.673,321.564,310.229z"/>
				<path style="fill:#FFFFFF;" d="M324.76,311.146c0.17,0.556-0.143,1.144-0.699,1.314c-0.556,0.17-1.144-0.143-1.314-0.699
					c-0.17-0.556,0.143-1.144,0.699-1.314C324.003,310.278,324.591,310.591,324.76,311.146z"/>
				<path style="fill:#FFFFFF;" d="M328.161,311.435c0.17,0.556-0.143,1.144-0.699,1.314c-0.556,0.17-1.144-0.143-1.313-0.699
					c-0.17-0.556,0.143-1.144,0.699-1.314C327.403,310.566,327.991,310.879,328.161,311.435z"/>
				<path style="fill:#FFFFFF;" d="M330.494,309.774c0.17,0.556-0.143,1.144-0.699,1.314c-0.556,0.17-1.144-0.143-1.314-0.699
					c-0.17-0.556,0.143-1.144,0.699-1.314C329.736,308.906,330.325,309.219,330.494,309.774z"/>
			</g>
			<polygon style="fill:#E7E8E0;" points="387.551,303.39 400.775,304.811 400.193,309.567 386.994,307.953 			"/>
			<polygon style="fill-rule:evenodd;clip-rule:evenodd;fill:#FFFFFF;" points="331.15,321.567 334.218,316.557 336.115,320.529 			
				"/>
			<g>
				<path style="fill:#1B1B1B;" d="M402.581,309.567c-1.977-0.942-4.146-1.502-6.286-1.459c-1.069,0.023-2.115,0.253-3.085,0.641
					c-0.964,0.408-1.832,1.012-2.566,1.754c-0.727,0.739-1.348,1.635-1.8,2.548c-0.447,0.946-0.764,1.974-1.043,3.01
					c-0.529,2.089-0.868,4.241-1.125,6.403c-0.492,4.33-0.727,8.701-0.853,13.073c-0.103,4.371-0.155,8.759-0.055,13.122
					l-1.594,0.042c-0.076-4.415-0.061-8.812,0.133-13.216c0.189-4.401,0.483-8.805,1.112-13.186c0.317-2.189,0.716-4.374,1.32-6.529
					c0.319-1.074,0.675-2.144,1.194-3.174c0.544-1.043,1.249-1.935,2.087-2.733c0.842-0.785,1.837-1.415,2.915-1.817
					c1.082-0.396,2.236-0.542,3.362-0.496C398.556,307.645,400.715,308.41,402.581,309.567z"/>
			</g>
			<polyline style="fill:none;stroke:#E7E8E0;stroke-width:7.9604;stroke-linejoin:round;stroke-miterlimit:10;" points="
				395.489,312.079 383.525,339.965 363.939,357.363 			"/>
			<g>
				<path style="fill:#1B1B1B;" d="M387.269,306.792c-0.155,1.082-0.794,1.778-1.427,1.553c-0.633-0.225-1.021-1.285-0.866-2.367
					c0.155-1.083,0.794-1.778,1.427-1.553C387.036,304.649,387.423,305.709,387.269,306.792z"/>
				<path style="fill:#1B1B1B;" d="M386.623,305.624l2.816-1.665c0.381-0.226,0.747,0.334,0.652,0.998l-0.775,5.419
					c-0.096,0.673-0.59,0.926-0.87,0.446l-2.06-3.538L386.623,305.624z"/>
			</g>
		</g>
	</g>
	<g>
		<path style="fill:#EFEFEF;" d="M447.223,219.81c0,1.616-45.681,2.926-90.927,2.926c-45.246,0-78.5-1.31-78.5-2.926
			c0-1.616,33.254-2.926,78.5-2.926C401.542,216.884,447.223,218.194,447.223,219.81z"/>
		<g>
			<polyline style="fill:none;stroke:#E7E8E0;stroke-width:7.9604;stroke-linejoin:round;stroke-miterlimit:10;" points="
				352.876,83.074 361.878,108.027 384.639,112.849 			"/>
			<polyline style="fill:none;stroke:#F4BEA2;stroke-width:6.8673;stroke-linejoin:round;stroke-miterlimit:10;" points="
				378.449,87.101 367.863,111.23 346.683,108.888 			"/>
			<path style="fill:#774C22;" d="M367.958,61.83c0,0-1.871-16.971,7.856-21.896c9.727-4.925,29.673-3.882,32.382,7.786
				c2.709,11.668,1.354,11.338,3.571,16.182c2.216,4.844-0.739,10.384-2.093,11.492c0,0,0.246,2.537,2.339,2.5
				c0,0-1.847,2.137-4.432,0.373c0,0-10.589,7.592-15.637,0.698l-5.91-0.698c0,0-3.817,6.57-13.298,1.048
				c0,0-3.571,2.851-6.279,1.004c0,0,2.955-0.781,2.093-2.053c0,0-5.294-2.38-4.063-8.044
				C365.718,64.559,368.23,65.834,367.958,61.83z"/>
			<path style="fill:#40210F;" d="M327.644,211.899l-8.438,4.378c-0.861,0.447-0.544,1.749,0.427,1.749h16.739v-6.127H327.644z"/>
			<path style="fill:#40210F;" d="M347.681,211.899l9.749,4.665c0.738,0.353,0.487,1.462-0.332,1.462H340.09l-0.142-6.127H347.681z"
				/>
			<polygon style="fill:#1B1B1B;" points="351.303,112.849 326.887,112.849 327.644,211.899 336.372,211.899 338.353,127.013 
				339.671,126.992 339.949,211.899 347.681,211.899 			"/>
			<polyline style="fill:none;stroke:#F4BEA2;stroke-width:6.8673;stroke-linejoin:round;stroke-miterlimit:10;" points="
				400.384,88.082 418.589,97.212 436.795,81.857 			"/>
			<path style="fill:#F4BEA2;" d="M295.776,115.214c0,2.779-2.253,5.031-5.031,5.031c-2.779,0-5.032-2.253-5.032-5.031
				c0-2.779,2.253-5.032,5.032-5.032C293.523,110.183,295.776,112.435,295.776,115.214z"/>
			<path style="fill:#F4BEA2;" d="M442.821,80.862c0,2.779-2.253,5.032-5.031,5.032c-2.779,0-5.032-2.253-5.032-5.032
				c0-2.779,2.253-5.031,5.032-5.031C440.569,75.831,442.821,78.083,442.821,80.862z"/>
			<path style="fill:#F4BEA2;" d="M339.072,82.046L339.072,82.046c-3.672,0-6.649-2.977-6.649-6.649v-7.08h13.298v7.08
				C345.72,79.069,342.744,82.046,339.072,82.046z"/>
			<path style="fill:#EAB096;" d="M332.422,69.925c0,0,2.738,3.935,7.014,3.935c4.277,0,6.284-3.441,6.284-3.441L332.422,69.925z"/>
			<path style="fill:#EAB096;" d="M325.77,57.469c0,2.046-1.659,3.705-3.705,3.705c-2.046,0-3.705-1.659-3.705-3.705
				c0-2.046,1.659-3.705,3.705-3.705C324.111,53.764,325.77,55.423,325.77,57.469z"/>
			<path style="fill:#EAB096;" d="M360.247,57.469c0,2.046-1.659,3.705-3.705,3.705c-2.046,0-3.705-1.659-3.705-3.705
				c0-2.046,1.659-3.705,3.705-3.705C358.588,53.764,360.247,55.423,360.247,57.469z"/>
			<path style="fill:#F4BEA2;" d="M356.32,54.207c0,9.955-7.469,17.358-16.683,17.358c-9.214,0-16.683-7.403-16.683-17.358
				c0-13.87,7.469-15.432,16.683-15.432C348.851,38.775,356.32,39.696,356.32,54.207z"/>
			<path style="fill:#2E2520;" d="M334.27,55.611c0,0.731-0.593,1.324-1.324,1.324s-1.324-0.593-1.324-1.324
				c0-0.732,0.593-1.324,1.324-1.324S334.27,54.879,334.27,55.611z"/>
			<path style="fill:#2E2520;" d="M347.604,55.611c0,0.731-0.593,1.324-1.324,1.324s-1.324-0.593-1.324-1.324
				c0-0.732,0.593-1.324,1.324-1.324S347.604,54.879,347.604,55.611z"/>
			<path style="fill:#E5A58C;" d="M339.629,64.192c-3.346,0-5.859-1.105-6.016-1.175c-0.275-0.124-0.397-0.446-0.274-0.721
				c0.124-0.276,0.449-0.399,0.722-0.275c0.054,0.024,5.452,2.385,10.752,0c0.277-0.124,0.599,0.001,0.722,0.274
				c0.124,0.275,0.001,0.599-0.274,0.722C343.302,63.898,341.354,64.192,339.629,64.192z"/>
			<path style="fill:#2E2520;" d="M344.633,49.216v1.624c0,0.337,0.326,0.574,0.649,0.478c0.981-0.292,2.922-0.684,4.747,0.031
				c0.248,0.097,0.528,0.007,0.647-0.231l0.445-0.889c0.096-0.191,0.064-0.426-0.09-0.574c-0.573-0.55-2.258-1.675-5.989-0.935
				C344.807,48.765,344.633,48.977,344.633,49.216z"/>
			<path style="fill:#2E2520;" d="M335.262,49.216v1.624c0,0.337-0.326,0.574-0.649,0.478c-0.981-0.292-2.922-0.684-4.747,0.031
				c-0.248,0.097-0.528,0.007-0.647-0.231l-0.445-0.889c-0.096-0.191-0.064-0.426,0.09-0.574c0.573-0.55,2.258-1.675,5.989-0.935
				C335.088,48.765,335.262,48.977,335.262,49.216z"/>
			<path style="fill:#40210F;" d="M348.306,34.04h-8.232h-1.175h-8.232c-4.751,0-8.602,3.144-8.602,8.301l0.314,11.424l1.604,0.522
				l1.786-8.224c0.26-1.456,1.121-2.703,2.336-3.382c1.027-0.575,2.212-0.688,3.32-0.334c1.276,0.408,4.284,0.875,7.474,0.972v0.021
				c0.196,0,0.391-0.007,0.587-0.01c0.196,0.003,0.391,0.01,0.587,0.01v-0.021c3.19-0.097,6.198-0.564,7.474-0.972
				c1.108-0.354,2.293-0.241,3.32,0.334c1.215,0.679,2.076,1.926,2.336,3.382l1.786,8.224l1.604-0.522l0.314-11.424
				C356.908,37.184,353.057,34.04,348.306,34.04z"/>
			<path style="fill:#F4BEA2;" d="M389.428,86.794L389.428,86.794c-2.645,0-4.79-2.145-4.79-4.79v-8.366h9.58v8.366
				C394.218,84.649,392.074,86.794,389.428,86.794z"/>
			<path style="fill:#E5A58C;" d="M384.639,75.179c0,0,1.972,3.771,5.053,3.771c3.081,0,4.527-3.297,4.527-3.297L384.639,75.179z"/>
			<path style="fill:#EAB096;" d="M376.06,63.244c0,1.961-1.589,3.55-3.55,3.55s-3.55-1.589-3.55-3.55c0-1.961,1.589-3.55,3.55-3.55
				S376.06,61.283,376.06,63.244z"/>
			<circle style="fill:#EAB096;" cx="405.547" cy="63.244" r="3.55"/>
			<path style="fill:#F4BEA2;" d="M405.335,60.118c0,9.539-7.157,16.633-15.986,16.633c-8.829,0-15.986-7.094-15.986-16.633
				c0-13.29,7.157-14.787,15.986-14.787C398.177,45.33,405.335,46.213,405.335,60.118z"/>
			<path style="fill:#2E2520;" d="M384.206,61.463c0,0.701-0.568,1.269-1.269,1.269c-0.701,0-1.269-0.568-1.269-1.269
				c0-0.701,0.568-1.269,1.269-1.269C383.638,60.194,384.206,60.762,384.206,61.463z"/>
			<path style="fill:#2E2520;" d="M396.982,61.463c0,0.701-0.568,1.269-1.269,1.269c-0.701,0-1.269-0.568-1.269-1.269
				c0-0.701,0.568-1.269,1.269-1.269C396.414,60.194,396.982,60.762,396.982,61.463z"/>
			<path style="fill:#2E2520;" d="M385.238,56.124l-0.081,0.767c0,0.323-0.312,0.55-0.622,0.458c-0.94-0.28-2.8-0.655-4.549,0.03
				c-0.237,0.093-0.506,0.007-0.62-0.222l-0.214-0.297c-0.091-0.183-0.061-0.408,0.087-0.55c0.549-0.527,2.031-1.372,5.607-0.663
				C385.07,55.692,385.238,55.895,385.238,56.124z"/>
			<path style="fill:#2E2520;" d="M393.221,56.124l0.081,0.767c0,0.323,0.312,0.55,0.622,0.458c0.94-0.28,2.8-0.655,4.549,0.03
				c0.237,0.093,0.506,0.007,0.62-0.222l0.214-0.297c0.092-0.183,0.061-0.408-0.087-0.55c-0.549-0.527-2.031-1.372-5.607-0.663
				C393.389,55.692,393.221,55.895,393.221,56.124z"/>
			<path style="fill:#E7E8E0;" d="M353.176,117.824h-28.401l-3.461-33.069c0-4.485,3.669-8.154,8.154-8.154h19.94
				c4.485,0,8.154,3.669,8.154,8.154L353.176,117.824z"/>
			<polyline style="fill:none;stroke:#E7E8E0;stroke-width:7.9604;stroke-linejoin:round;stroke-miterlimit:10;" points="
				326.403,82.351 314.351,109.983 294.332,114.676 			"/>
			<g>
				<path style="fill:#F4BEA2;" d="M398.657,114.613l5.268-25.454c0-3.363-2.751-6.114-6.114-6.114H380.21
					c-3.363,0-6.114,2.751-6.114,6.114l5.279,25.517L398.657,114.613z"/>
			</g>
			<path style="fill:#FFFFFD;" d="M379.375,114.676l-4.197-17.196l4.747-3.731c1.068-0.839,2.518-1.003,3.747-0.423l4.971,2.347
				l5.301-2.469c1.103-0.514,2.392-0.433,3.423,0.215l5.553,3.492l-4.309,17.766H379.375z"/>
			<path style="fill:#40210F;" d="M326.851,41.029c-0.419-1.46-2.983-9.876,5.572-12.063c8.554-2.187,18.03,7.885,26.405,1.889
				c0,0,0.258,10.076-11.28,10.496C336.009,41.771,326.851,41.029,326.851,41.029z"/>
			<path style="fill:#40210F;" d="M346.73,32.18c0,0,5.097,0.178,7.353-3.412c0,0,2.009,3.247-3.06,6.267
				C345.953,38.056,346.73,32.18,346.73,32.18z"/>
			<path style="fill:#E5A58C;" d="M339.082,57.517l-1.04,1.855c-0.164,0.293,0.029,0.67,0.345,0.67h2.198
				c0.324,0,0.516-0.396,0.334-0.688l-1.159-1.855C339.596,57.235,339.236,57.244,339.082,57.517z"/>
			<path style="fill:#E5A58C;" d="M389.024,63.036l-1.04,1.855c-0.164,0.293,0.029,0.67,0.345,0.67h2.198
				c0.324,0,0.516-0.396,0.334-0.688l-1.158-1.855C389.538,62.753,389.177,62.763,389.024,63.036z"/>
			<polygon style="fill:#E7E8E0;" points="332.365,74.155 339.477,75.653 345.796,74.262 345.645,78.428 332.5,78.535 			"/>
			
				<line style="fill:none;stroke:#1B1B1B;stroke-width:1.9901;stroke-miterlimit:10;" x1="327.856" y1="76.601" x2="330.133" y2="118.819"/>
			
				<line style="fill:none;stroke:#1B1B1B;stroke-width:1.9901;stroke-miterlimit:10;" x1="349.995" y1="76.601" x2="347.719" y2="118.819"/>
			
				<line style="fill:none;stroke:#FFFFFD;stroke-width:0.995;stroke-miterlimit:10;" x1="338.926" y1="80.395" x2="338.926" y2="117.824"/>
			<g>
				<path style="fill:#1B1B1B;" d="M341.129,79.598c0,1.127-0.907,2.041-2.024,2.041c-1.118,0-2.023-0.915-2.023-2.042
					c0-1.128,0.906-2.041,2.024-2.041C340.224,77.556,341.13,78.47,341.129,79.598z"/>
				<path style="fill:#1B1B1B;" d="M338.513,78.666l-4.33-2.643c-0.586-0.358-1.335,0.068-1.336,0.759l-0.001,5.644
					c0,0.701,0.768,1.126,1.354,0.748l4.312-2.781L338.513,78.666z"/>
				<path style="fill:#1B1B1B;" d="M339.765,78.667l4.331-2.64c0.587-0.358,1.335,0.069,1.335,0.76l-0.001,5.644
					c0,0.701-0.769,1.126-1.354,0.748l-4.311-2.783L339.765,78.667z"/>
			</g>
			<path style="fill:#774C22;" d="M387.228,44.179c0,0,7.881,10.917,19.744,11.247c0,0,0.276-8.794-6.588-11.727
				C393.52,40.766,387.228,44.179,387.228,44.179z"/>
			<path style="fill:#774C22;" d="M390.596,45.33c0,0-6.848-0.815-8.929,4.6c-1.687,4.389-5.591,8.137-10.985,3.834
				c-5.393-4.304,8.418-10.293,8.418-10.293L390.596,45.33z"/>
			<g>
				<path style="fill:#FFFFFF;" d="M401.562,39.464c-0.265-0.987-1.519-4.17-3.033-3.14c-1.189,0.809,0.274,4.379,1.252,4.523
					c-1.195-0.404-4.079-0.87-3.674,1.066c0.286,1.362,3.62,1.848,4.799,1.409c-1.608,0.401-2.509,3.72-1.203,4.433
					c2.275,1.24,3.562-2.458,3.178-4.202c0.851,1.363,2.262,3.404,3.784,2.363c0.585-0.4,0.615-1.545,0.576-1.755
					c-0.099-0.542-0.683-1.186-1.298-1.576c1.156,0.22,2.597,0.12,2.804-0.926c0.423-2.131-3.699-2.64-4.847-2.168
					c1.243-0.713,1.721-2.636,0.51-3.335C402.341,34.962,401.052,37.763,401.562,39.464z"/>
				<path style="fill:#FFC6BD;" d="M402.837,40.195c0.79,0.253,1.225,1.097,0.972,1.887c-0.253,0.79-1.098,1.225-1.887,0.972
					c-0.79-0.253-1.225-1.097-0.972-1.887C401.202,40.377,402.047,39.942,402.837,40.195z"/>
			</g>
			<g>
				<path style="fill:#FFFFFF;" d="M385.876,82.755c0,0.581-0.471,1.052-1.052,1.052c-0.581,0-1.052-0.471-1.052-1.052
					s0.471-1.052,1.052-1.052C385.405,81.702,385.876,82.174,385.876,82.755z"/>
				<circle style="fill:#FFFFFF;" cx="386.4" cy="84.859" r="1.052"/>
				<circle style="fill:#FFFFFF;" cx="389.448" cy="85.804" r="1.052"/>
				<circle style="fill:#FFFFFF;" cx="394.033" cy="82.547" r="1.052"/>
				<circle style="fill:#FFFFFF;" cx="392.194" cy="84.752" r="1.052"/>
			</g>
			<path style="fill:#FFFFFD;" d="M398.61,114.676h-9.182h-0.872h-9.182c0,0-21.206,20.16-16.578,103.817h25.76h0.872h25.932
				C419.988,134.837,398.61,114.676,398.61,114.676z"/>
			<g>
				<path style="fill-rule:evenodd;clip-rule:evenodd;fill:#FFFFFF;" d="M441.43,89.391l-5.65-0.039
					c-0.89-0.006-1.05-1.266-0.192-1.502c0.708-0.194,1.476-0.328,2.266-0.391l0.225-12.938c-4.749-0.838-3.087-15.602-3.087-15.602
					l8.834,0.06c0,0,1.38,15.242-4.216,15.638l-0.272,12.917c0.753,0.07,1.529,0.197,2.262,0.377
					C442.471,88.124,442.324,89.397,441.43,89.391z"/>
				<path style="fill-rule:evenodd;clip-rule:evenodd;fill:#F9CF85;" d="M442.693,63.236l-6.854-0.047
					c0,0-0.671,10.463,3.129,10.227C443.387,73.142,442.693,63.236,442.693,63.236z"/>
			</g>
			<g>
				<path style="fill-rule:evenodd;clip-rule:evenodd;fill:#FFFFFD;" d="M292.932,123.228l-5.65-0.038
					c-0.89-0.006-1.05-1.266-0.192-1.502c0.708-0.194,1.476-0.328,2.266-0.391l0.225-12.938c-4.749-0.838-3.087-15.602-3.087-15.602
					l8.834,0.06c0,0,1.38,15.242-4.216,15.638l-0.272,12.917c0.753,0.07,1.529,0.197,2.262,0.377
					C293.973,121.961,293.826,123.234,292.932,123.228z"/>
				<path style="fill-rule:evenodd;clip-rule:evenodd;fill:#F9CF85;" d="M294.195,97.073l-6.854-0.047
					c0,0-0.672,10.463,3.129,10.227C294.889,106.979,294.195,97.073,294.195,97.073z"/>
			</g>
			<path style="fill:#FFFFFD;" d="M383.615,67.355h11.467c0,0-0.263,2.612-4.513,3.397c-1.284,0.237-2.625,0.189-3.851-0.261
				C385.498,70.044,384.144,69.148,383.615,67.355z"/>
			<path style="fill-rule:evenodd;clip-rule:evenodd;fill:#F4BEA2;" d="M287.943,112.849c0,0,3.113,2.336,4.527,0
				c1.415-2.336,0.68,6.785,0.68,6.785s-3.632,1.751-6.259-1.185S287.943,112.849,287.943,112.849z"/>
			<path style="fill-rule:evenodd;clip-rule:evenodd;fill:#F4BEA2;" d="M440.628,78.132c0,0-2.698,2.099-4.113-0.237
				c-1.415-2.336-1.217,7.481-1.217,7.481s3.632,1.751,6.259-1.185C444.184,81.254,440.628,78.132,440.628,78.132z"/>
		</g>
	</g>
	<g>
		<path style="fill:#EFEFEF;" d="M236.73,450.979c0,1.616-48.055,2.926-95.652,2.926c-47.597,0-82.579-1.31-82.579-2.926
			c0-1.616,34.982-2.926,82.579-2.926C188.675,448.053,236.73,449.363,236.73,450.979z"/>
		<g>
			<g>
				<path style="fill:#40210F;" d="M136.412,442.879l-8.438,4.378c-0.861,0.447-0.544,1.749,0.427,1.749h16.739v-6.127H136.412z"/>
				<path style="fill:#40210F;" d="M156.45,442.879l9.749,4.665c0.738,0.353,0.487,1.462-0.332,1.462h-17.008l-0.142-6.127H156.45z"
					/>
				<polygon style="fill:#1B1B1B;" points="160.071,343.829 135.655,343.829 136.412,442.879 145.14,442.879 147.121,357.993 
					148.44,357.972 148.717,442.879 156.45,442.879 				"/>
				<path style="fill:#F4BEA2;" d="M147.84,313.026L147.84,313.026c-3.672,0-6.649-2.977-6.649-6.649v-7.08h13.298v7.08
					C154.489,310.049,151.512,313.026,147.84,313.026z"/>
				<path style="fill:#EAB096;" d="M141.191,300.905c0,0,2.738,3.935,7.014,3.935s6.284-3.441,6.284-3.441L141.191,300.905z"/>
				<path style="fill:#EAB096;" d="M134.538,288.449c0,2.046-1.659,3.705-3.705,3.705c-2.046,0-3.705-1.659-3.705-3.705
					c0-2.046,1.659-3.705,3.705-3.705C132.879,284.745,134.538,286.403,134.538,288.449z"/>
				<path style="fill:#EAB096;" d="M169.015,288.449c0,2.046-1.659,3.705-3.705,3.705s-3.705-1.659-3.705-3.705
					c0-2.046,1.659-3.705,3.705-3.705S169.015,286.403,169.015,288.449z"/>
				<path style="fill:#F4BEA2;" d="M165.088,285.187c0,9.955-7.469,17.358-16.683,17.358c-9.214,0-16.683-7.403-16.683-17.358
					c0-13.87,7.469-15.432,16.683-15.432C157.619,269.755,165.088,270.676,165.088,285.187z"/>
				<path style="fill:#2E2520;" d="M143.038,286.591c0,0.731-0.593,1.324-1.324,1.324c-0.732,0-1.325-0.593-1.325-1.324
					c0-0.732,0.593-1.324,1.325-1.324C142.445,285.267,143.038,285.859,143.038,286.591z"/>
				<path style="fill:#2E2520;" d="M156.372,286.591c0,0.731-0.593,1.324-1.324,1.324s-1.324-0.593-1.324-1.324
					c0-0.732,0.593-1.324,1.324-1.324S156.372,285.859,156.372,286.591z"/>
				<path style="fill:#2E2520;" d="M153.401,280.196v1.624c0,0.338,0.326,0.574,0.649,0.478c0.981-0.292,2.922-0.684,4.747,0.031
					c0.248,0.097,0.528,0.007,0.647-0.231l0.445-0.889c0.096-0.191,0.064-0.426-0.09-0.574c-0.573-0.55-2.258-1.675-5.989-0.935
					C153.576,279.745,153.401,279.957,153.401,280.196z"/>
				<path style="fill:#2E2520;" d="M144.031,280.196v1.624c0,0.338-0.326,0.574-0.649,0.478c-0.981-0.292-2.922-0.684-4.747,0.031
					c-0.248,0.097-0.528,0.007-0.647-0.231l-0.445-0.889c-0.095-0.191-0.064-0.426,0.09-0.574c0.573-0.55,2.258-1.675,5.989-0.935
					C143.856,279.745,144.031,279.957,144.031,280.196z"/>
				<path style="fill:#40210F;" d="M157.074,265.02h-8.232h-1.175h-8.232c-4.751,0-8.602,3.144-8.602,8.301l0.314,11.424
					l1.604,0.522l1.786-8.224c0.26-1.456,1.121-2.703,2.336-3.382c1.027-0.575,2.212-0.688,3.32-0.334
					c1.276,0.408,4.284,0.875,7.474,0.972v0.021c0.196,0,0.391-0.007,0.587-0.01c0.196,0.003,0.391,0.01,0.587,0.01v-0.021
					c3.19-0.097,6.198-0.564,7.474-0.972c1.109-0.354,2.293-0.241,3.32,0.334c1.215,0.679,2.076,1.926,2.336,3.382l1.786,8.224
					l1.604-0.522l0.314-11.424C165.677,268.164,161.825,265.02,157.074,265.02z"/>
				<path style="fill:#E7E8E0;" d="M161.944,348.804h-28.401l-3.461-33.069c0-4.485,3.669-8.154,8.154-8.154h19.94
					c4.485,0,8.154,3.669,8.154,8.154L161.944,348.804z"/>
				
					<line style="fill:none;stroke:#E7E8E0;stroke-width:7.9604;stroke-linejoin:round;stroke-miterlimit:10;" x1="135.171" y1="313.331" x2="123.119" y2="340.963"/>
				
					<line style="fill:none;stroke:#E7E8E0;stroke-width:7.9604;stroke-linejoin:round;stroke-miterlimit:10;" x1="161.644" y1="314.054" x2="170.646" y2="339.007"/>
				<path style="fill:#40210F;" d="M135.619,272.009c-0.419-1.46-2.983-9.876,5.572-12.063c8.554-2.187,18.03,7.885,26.405,1.889
					c0,0,0.258,10.076-11.28,10.496C144.778,272.751,135.619,272.009,135.619,272.009z"/>
				<path style="fill:#40210F;" d="M155.498,263.16c0,0,5.098,0.178,7.353-3.412c0,0,2.01,3.247-3.06,6.267
					C154.721,269.036,155.498,263.16,155.498,263.16z"/>
				<path style="fill:#E5A58C;" d="M147.851,288.497l-1.04,1.855c-0.165,0.293,0.029,0.67,0.345,0.67h2.198
					c0.324,0,0.517-0.396,0.334-0.688l-1.159-1.855C148.364,288.215,148.004,288.225,147.851,288.497z"/>
				<polygon style="fill:#E7E8E0;" points="141.133,305.135 148.245,306.633 154.564,305.242 154.413,309.409 141.268,309.516 				
					"/>
				
					<line style="fill:none;stroke:#1B1B1B;stroke-width:1.9901;stroke-miterlimit:10;" x1="136.625" y1="307.581" x2="138.901" y2="349.799"/>
				
					<line style="fill:none;stroke:#1B1B1B;stroke-width:1.9901;stroke-miterlimit:10;" x1="158.764" y1="307.581" x2="156.487" y2="349.799"/>
				
					<line style="fill:none;stroke:#FFFFFD;stroke-width:0.995;stroke-miterlimit:10;" x1="147.694" y1="311.375" x2="147.694" y2="348.804"/>
				<g>
					<ellipse style="fill:#1B1B1B;" cx="147.874" cy="310.577" rx="2.024" ry="2.041"/>
					<path style="fill:#1B1B1B;" d="M147.281,309.647l-4.33-2.643c-0.587-0.358-1.335,0.068-1.336,0.759l-0.001,5.644
						c0,0.701,0.768,1.126,1.354,0.748l4.313-2.781L147.281,309.647z"/>
					<path style="fill:#1B1B1B;" d="M148.533,309.647l4.331-2.64c0.587-0.358,1.335,0.069,1.335,0.76l-0.002,5.644
						c0,0.701-0.769,1.126-1.354,0.747l-4.311-2.783L148.533,309.647z"/>
				</g>
				<path style="fill:#FFFFFD;" d="M142.472,293.313h11.467c0,0-0.263,2.612-4.513,3.397c-1.284,0.237-2.624,0.189-3.851-0.261
					C144.354,296.002,143.001,295.106,142.472,293.313z"/>
			</g>
			<g>
				<path style="fill:#00317A;" d="M165.386,346.365"/>
				<g>
					<polygon style="fill:#F4BEA2;" points="92.605,384.176 101.944,316.089 93.699,314.887 86.833,384.115 					"/>
					<g>
						<path style="fill:#F28075;" d="M82.833,388.646c0,0-2.881,1.126-5.086,4.137c-0.477,0.651-0.059,1.577,0.742,1.677
							c2.249,0.28,6.601,0.246,11.391-2.848l-0.382,2.839l1.717,0.057l1.579-6.087c0,0,0.82-2.373-0.19-4.245l-5.547,3.473
							L82.833,388.646z"/>
						<path style="fill:#F4BEA2;" d="M86.867,384.024c0,0-3.915,3.417-5.357,7.098c0,0,9.752-1.444,11.094-6.947L86.867,384.024z"/>
					</g>
				</g>
				<g>
					<polygon style="fill:#F4BEA2;" points="52.702,333.694 121.314,337.635 121.861,329.322 52.308,327.935 					"/>
					<g>
						<path style="fill:#F28075;" d="M47.475,324.306c0,0-1.349-2.784-4.525-4.744c-0.687-0.424-1.577,0.065-1.613,0.872
							c-0.102,2.264,0.275,6.6,3.738,11.131l-2.86-0.157l0.078,1.716l6.192,1.094c0,0,2.431,0.631,4.217-0.524l-3.9-5.256
							L47.475,324.306z"/>
						<path style="fill:#F4BEA2;" d="M52.401,327.962c0,0-3.715-3.633-7.499-4.781c0,0,2.209,9.608,7.8,10.512L52.401,327.962z"/>
					</g>
				</g>
				<g>
					<g>
						
							<polyline style="fill:none;stroke:#F4BEA2;stroke-width:6.8673;stroke-linecap:round;stroke-linejoin:round;stroke-miterlimit:10;" points="
							172.321,322.004 167.067,342.093 159.919,350.376 						"/>
						<path style="fill:#F4BEA2;" d="M193.484,336.157c0,0-3.96,5.384-21.746,12.326c-17.894,6.984,16.975-17.299,16.975-17.299
							L193.484,336.157z"/>
						<polygon style="fill:#F4BEA2;" points="192.509,333.159 174.186,319.18 160.849,339.19 165.036,356.101 						"/>
						<path style="fill:#FFFFFF;" d="M64.201,311.797c0,0,92.939-5.607,102.293,34.351c2.631,11.238-10.563,27.29-29.337,7.855
							c-2.065-2.137-3.352-2.191-6.056-1.112c-14.206,5.67-32.477,27.359-31.518,27.178
							C99.584,380.068,49.392,358.766,64.201,311.797z"/>
						<path style="fill:#F4BEA2;" d="M133.057,350.543l0.797,1.605c0.777,1.565,0.018,3.457-1.625,4.051l-3.187,1.151
							c-1.508,0.545-3.18-0.179-3.815-1.651l-0.501-1.161c-0.596-1.381-0.013-2.988,1.329-3.667l3.168-1.602
							C130.634,348.557,132.354,349.129,133.057,350.543z"/>
						<path style="fill:#774C22;" d="M178.709,296.813c0,0,8.174-14.99,18.97-13.465c10.796,1.525,26.559,13.791,22.106,24.91
							c-4.453,11.12-5.375,10.075-6.328,15.315c-0.953,5.241-6.546,8.095-8.291,8.229c0,0-1.249,2.221,0.489,3.388
							c0,0-2.737,0.696-3.849-2.23c0,0-13.028,0.17-13.225-8.373l-4.448-3.953c0,0-6.889,3.205-11.506-6.747
							c0,0-4.56,0.296-5.725-2.768c0,0,2.87,1.05,2.891-0.486c0,0-2.981-4.981,1.269-8.922S176.642,300.253,178.709,296.813z"/>
						<path style="fill:#F4BEA2;" d="M181.513,327.905L181.513,327.905c-1.952-1.786-2.086-4.815-0.3-6.767l5.647-6.172l7.068,6.467
							l-5.647,6.172C186.494,329.556,183.464,329.691,181.513,327.905z"/>
						<path style="fill:#E5A58C;" d="M184.719,314.77c0,0-1.573,5.586,0.7,7.666c2.273,2.08,7.149,0.483,7.149,0.483L184.719,314.77
							z"/>
						<path style="fill:#EAB096;" d="M184.546,302.608c-1.122,1.608-3.334,2.002-4.943,0.881c-1.608-1.122-2.003-3.335-0.881-4.943
							c1.122-1.608,3.334-2.003,4.943-0.881C185.273,298.787,185.667,301,184.546,302.608z"/>
						<path style="fill:#EAB096;" d="M211.643,321.508c-1.122,1.608-3.334,2.003-4.943,0.881c-1.608-1.122-2.003-3.334-0.881-4.943
							c1.122-1.608,3.335-2.003,4.943-0.881C212.37,317.687,212.765,319.899,211.643,321.508z"/>
						<path style="fill:#F4BEA2;" d="M210.345,316.791c-5.457,7.824-15.385,9.548-22.627,4.497
							c-7.242-5.051-9.054-14.963-3.597-22.787c7.603-10.901,14.33-8.034,21.571-2.983
							C212.934,300.568,218.3,305.386,210.345,316.791z"/>
						<path style="fill:#2E2520;" d="M196.146,302.018l-0.505,0.583c-0.185,0.265-0.571,0.272-0.772,0.02
							c-0.611-0.767-1.921-2.139-3.748-2.578c-0.248-0.06-0.419-0.284-0.382-0.536l-0.005-0.366c0.03-0.203,0.183-0.37,0.386-0.402
							c0.751-0.118,2.451,0.037,4.978,2.664C196.256,301.568,196.277,301.831,196.146,302.018z"/>
						<path style="fill:#2E2520;" d="M202.695,306.585l-0.373,0.676c-0.185,0.265-0.059,0.629,0.248,0.731
							c0.931,0.309,2.671,1.064,3.714,2.627c0.141,0.212,0.411,0.295,0.635,0.173l0.345-0.122c0.18-0.098,0.284-0.3,0.244-0.501
							c-0.149-0.746-0.881-2.288-4.22-3.751C203.079,306.327,202.825,306.398,202.695,306.585z"/>
						<path style="fill:#E5A58C;" d="M195.298,309.854l-1.914,0.926c-0.303,0.147-0.359,0.566-0.1,0.746l1.803,1.258
							c0.266,0.186,0.65-0.029,0.667-0.373l0.111-2.184C195.881,309.916,195.58,309.717,195.298,309.854z"/>
						<path style="fill:#774C22;" d="M204.612,293.359c0,0,0.218,13.463,9.761,20.52c0,0,5.257-7.055,1.305-13.387
							C211.725,294.16,204.612,293.359,204.612,293.359z"/>
						<path style="fill:#774C22;" d="M206.716,296.231c0,0-5.15-4.586-9.955-1.335c-3.895,2.635-9.241,3.476-11.203-3.139
							c-1.962-6.615,12.792-3.627,12.792-3.627L206.716,296.231z"/>
						<g>
							<path style="fill:#FFFFFF;" d="M218.952,295.025c0.554-0.858,2.074-3.924,0.294-4.355c-1.398-0.339-3.063,3.141-2.515,3.963
								c-0.502-1.157-2.091-3.609-3.255-2.009c-0.818,1.126,1.058,3.924,2.174,4.504c-1.376-0.923-4.442,0.635-4.095,2.082
								c0.606,2.518,4.213,0.992,5.248-0.462c-0.44,1.546-1.007,3.961,0.786,4.391c0.689,0.165,1.558-0.581,1.688-0.75
								c0.335-0.437,0.422-1.302,0.297-2.02c0.612,1.005,1.653,2.006,2.568,1.458c1.864-1.115-0.524-4.514-1.644-5.049
								c1.363,0.443,3.109-0.493,2.814-1.859C222.812,292.583,219.871,293.505,218.952,295.025z"/>
							<path style="fill:#FFC6BD;" d="M219.265,296.461c0.342,0.755,0.008,1.645-0.747,1.987c-0.755,0.342-1.645,0.008-1.987-0.747
								c-0.342-0.755-0.008-1.645,0.747-1.987C218.033,295.371,218.923,295.706,219.265,296.461z"/>
						</g>
						<g>
							<path style="fill:#FFFFFF;" d="M181.619,322.527c-0.392,0.429-1.058,0.458-1.487,0.066s-0.458-1.058-0.066-1.487
								c0.392-0.429,1.058-0.458,1.487-0.066C181.982,321.433,182.011,322.098,181.619,322.527z"/>
							<path style="fill:#FFFFFF;" d="M181.361,325.143c-0.392,0.429-1.058,0.458-1.487,0.066c-0.429-0.392-0.458-1.058-0.066-1.487
								c0.392-0.429,1.058-0.458,1.487-0.066S181.753,324.715,181.361,325.143z"/>
							<path style="fill:#FFFFFF;" d="M182.971,327.898c-0.392,0.429-1.058,0.458-1.487,0.066c-0.429-0.392-0.458-1.058-0.066-1.487
								c0.392-0.429,1.058-0.458,1.487-0.066C183.334,326.804,183.363,327.47,182.971,327.898z"/>
							<path style="fill:#FFFFFF;" d="M188.553,328.59c-0.392,0.429-1.058,0.458-1.486,0.066c-0.429-0.392-0.458-1.058-0.066-1.487
								c0.392-0.429,1.058-0.458,1.487-0.066C188.916,327.496,188.945,328.161,188.553,328.59z"/>
							<path style="fill:#FFFFFF;" d="M185.708,328.976c-0.392,0.429-1.058,0.458-1.486,0.066s-0.458-1.058-0.066-1.487
								c0.392-0.429,1.058-0.458,1.487-0.066C186.07,327.882,186.1,328.547,185.708,328.976z"/>
						</g>
						<path style="fill:#FFFFFD;" d="M187.957,310.96l9.297,6.712c0,0-1.929,2.344-5.835,0.493c-1.18-0.559-2.238-1.383-2.969-2.465
							C187.723,314.623,187.337,312.724,187.957,310.96z"/>
						
							<path style="fill:none;stroke:#2E2520;stroke-width:0.995;stroke-linecap:round;stroke-linejoin:round;stroke-miterlimit:10;" d="
							M192.171,306.162c0,0-0.059-1.851-2.769-2.034"/>
						
							<path style="fill:none;stroke:#2E2520;stroke-width:0.995;stroke-linecap:round;stroke-linejoin:round;stroke-miterlimit:10;" d="
							M200.505,311.743c0,0,1.816-0.362,2.609,2.236"/>
					</g>
					
						<polyline style="fill:none;stroke:#F4BEA2;stroke-width:6.8673;stroke-linecap:round;stroke-linejoin:round;stroke-miterlimit:10;" points="
						190.963,336.13 188.216,361.439 170.134,364.601 					"/>
				</g>
				<path style="fill:#F4BEA2;" d="M174.3,364.329c-0.102,3.084-2.684,5.502-5.769,5.4c-3.084-0.102-5.502-2.684-5.401-5.769
					c0.102-3.084,2.684-5.502,5.769-5.401C171.983,358.662,174.401,361.245,174.3,364.329z"/>
				<path style="fill:#FFFFFF;" d="M176.189,333.312l-3.475-4.819c-0.449-0.806-1.466-1.097-2.273-0.649l-3.218,1.784l-6.373,9.562
					l2.488,18.485l13.952-10.338l9.597-5.774l-1.169-4.543c-0.618-1.502-1.979-2.57-3.585-2.812L176.189,333.312z"/>
				<path style="fill:#F4BEA2;" d="M181.027,344.046l0.8,1.603c0.78,1.563,0.025,3.457-1.617,4.054l-3.185,1.158
					c-1.507,0.548-3.18-0.173-3.818-1.644l-0.503-1.16c-0.598-1.38-0.019-2.988,1.322-3.669l3.165-1.608
					C178.6,342.064,180.321,342.632,181.027,344.046z"/>
			</g>
		</g>
	</g>
</g>
<g id="DESIGNED_BY_FREEPIK">
	<g>
		<g id="XMLID_319_">
			<g id="XMLID_338_">
				<path id="XMLID_346_" style="fill:#222221;" d="M260.104,465.465c-0.432,0.443-0.803,0.931-1.108,1.453l-0.465-0.241
					c-0.067-0.298-0.349-0.503-0.659-0.466c-0.331,0.039-0.568,0.339-0.529,0.67s0.339,0.568,0.67,0.529
					c0.065-0.008,0.127-0.026,0.184-0.052l0.451,0.234c-0.251,0.554-0.433,1.139-0.539,1.744l0.746,0.132
					c0.23-1.306,0.85-2.507,1.792-3.473L260.104,465.465z"/>
				<path id="XMLID_345_" style="fill:#222221;" d="M265.592,463.163c-0.171,0-0.341,0.006-0.51,0.017l-0.074-0.626
					c0.188-0.149,0.296-0.389,0.266-0.645c-0.046-0.393-0.402-0.674-0.795-0.628s-0.674,0.402-0.628,0.795
					c0.03,0.254,0.189,0.461,0.405,0.564l0.073,0.624c-0.714,0.116-1.403,0.332-2.06,0.646l0.327,0.684
					c0.934-0.447,1.942-0.673,2.995-0.673c0.496,0,0.993,0.053,1.475,0.158l0.161-0.741
					C266.693,463.222,266.142,463.163,265.592,463.163z"/>
				<path id="XMLID_344_" style="fill:#222221;" d="M272.194,465.711c0.331-0.04,0.566-0.341,0.525-0.672
					c-0.04-0.331-0.341-0.566-0.672-0.526c-0.309,0.038-0.535,0.304-0.53,0.609l-0.416,0.363c-0.418-0.43-0.89-0.813-1.408-1.139
					l-0.404,0.641c1.134,0.715,2.021,1.726,2.563,2.925l0.691-0.313c-0.251-0.554-0.568-1.072-0.942-1.545l0.402-0.351
					C272.065,465.716,272.129,465.719,272.194,465.711z"/>
				<path id="XMLID_343_" style="fill:#222221;" d="M265.044,473.372c-0.386,0.023-0.775,0.035-1.157,0.035
					c-0.88,0-1.733-0.061-2.478-0.179c-0.39-0.062-0.846-0.155-1.27-0.292c1.046,1.861,3.069,3.125,5.388,3.125
					c2.855,0,5.262-1.916,5.95-4.504c-0.682,0.449-1.505,0.825-2.459,1.123C267.839,473.047,266.464,473.286,265.044,473.372z"/>
				<path id="XMLID_339_" style="fill:#222221;" d="M265.592,464.68c-3.352,0-6.08,2.666-6.08,5.943
					c0,0.426,0.046,0.849,0.137,1.261c0.674,0.483,2.706,0.89,5.348,0.731c2.879-0.173,5.297-0.957,6.672-2.159
					c-0.005-0.195-0.021-0.39-0.045-0.582C271.244,466.913,268.65,464.68,265.592,464.68z M263.432,471.194
					c-1.02,0-1.85-0.83-1.85-1.85c0-1.02,0.83-1.85,1.85-1.85c1.02,0,1.85,0.83,1.85,1.85
					C265.282,470.365,264.452,471.194,263.432,471.194z M268.17,470.286c-0.75,0-1.36-0.61-1.36-1.36s0.61-1.361,1.36-1.361
					c0.75,0,1.361,0.61,1.361,1.361S268.92,470.286,268.17,470.286z"/>
			</g>
			<path id="XMLID_336_" style="fill:#222221;" d="M281.595,466.547c-0.295-0.116-0.806-0.309-1.382-0.237
				c-0.551,0.069-0.844,0.341-0.844,1.007v0.866h2.228v1.717h-2.228v5.455h-1.932v-5.455h-1.34v-1.717h1.34v-0.888
				c0-1.68,0.896-2.783,2.568-2.783c0.642,0,1.157,0.122,1.59,0.308L281.595,466.547z"/>
			<path id="XMLID_334_" style="fill:#222221;" d="M286.298,469.879c-0.177-0.03-0.358-0.046-0.526-0.046
				c-0.896,0-1.51,0.548-1.51,1.614v3.908h-1.932v-7.172h1.873v0.785c0.451-0.673,1.14-0.977,2.021-0.977
				c0.414,0,0.848,0.128,1.094,0.337L286.298,469.879z"/>
			<path id="XMLID_331_" style="fill:#222221;" d="M293.965,471.757c0,0.222-0.015,0.489-0.037,0.651h-5.085
				c0.207,1.036,0.933,1.488,1.843,1.488c0.622,0,1.295-0.252,1.813-0.688l1.132,1.243c-0.814,0.748-1.85,1.088-3.057,1.088
				c-2.198,0-3.723-1.495-3.723-3.753c0-2.258,1.48-3.797,3.627-3.797C292.544,467.99,293.958,469.522,293.965,471.757z
				 M288.851,471.091h3.175c-0.177-0.918-0.733-1.436-1.562-1.436C289.554,469.655,289.021,470.203,288.851,471.091z"/>
			<path id="XMLID_328_" style="fill:#222221;" d="M301.618,471.757c0,0.222-0.015,0.489-0.037,0.651h-5.085
				c0.207,1.036,0.932,1.488,1.843,1.488c0.622,0,1.295-0.252,1.813-0.688l1.132,1.243c-0.814,0.748-1.85,1.088-3.057,1.088
				c-2.198,0-3.723-1.495-3.723-3.753c0-2.258,1.48-3.797,3.627-3.797C300.197,467.99,301.611,469.522,301.618,471.757z
				 M296.504,471.091h3.175c-0.178-0.918-0.733-1.436-1.562-1.436C297.207,469.655,296.674,470.203,296.504,471.091z"/>
			<path id="XMLID_325_" style="fill:#222221;" d="M309.964,471.764c0,2.154-1.495,3.775-3.471,3.775
				c-0.962,0-1.643-0.378-2.109-0.933v3.708h-1.924v-10.133h1.887v0.792c0.466-0.585,1.155-0.984,2.139-0.984
				C308.469,467.99,309.964,469.61,309.964,471.764z M304.287,471.764c0,1.132,0.747,1.976,1.843,1.976
				c1.14,0,1.85-0.881,1.85-1.976c0-1.095-0.71-1.976-1.85-1.976C305.035,469.788,304.287,470.632,304.287,471.764z"/>
			<path id="XMLID_322_" style="fill:#222221;" d="M313.068,465.836c0,0.696-0.54,1.229-1.236,1.229
				c-0.696,0-1.229-0.533-1.229-1.229c0-0.696,0.533-1.243,1.229-1.243C312.527,464.592,313.068,465.14,313.068,465.836z
				 M312.809,475.354h-1.932v-7.172h1.932V475.354z"/>
			<path id="XMLID_320_" style="fill:#222221;" d="M316.032,470.736l2.702-2.554h2.368l-3.479,3.375l3.501,3.797h-2.376
				l-2.716-2.901v2.901H314.1v-10.658h1.932V470.736z"/>
		</g>
		<g>
			<path style="fill:#222221;" d="M184.412,475.289v-1.055c-0.527,0.718-1.391,1.23-2.388,1.23c-1.846,0-3.149-1.406-3.149-3.706
				c0-2.256,1.289-3.721,3.149-3.721c0.952,0,1.816,0.469,2.388,1.245v-3.765h1.099v9.77H184.412z M184.412,473.37v-3.208
				c-0.395-0.615-1.245-1.143-2.124-1.143c-1.421,0-2.27,1.172-2.27,2.739c0,1.567,0.85,2.724,2.27,2.724
				C183.168,474.483,184.017,473.986,184.412,473.37z"/>
			<path style="fill:#222221;" d="M186.932,471.744c0-2.051,1.465-3.706,3.486-3.706c2.139,0,3.398,1.67,3.398,3.794v0.279h-5.727
				c0.088,1.333,1.025,2.446,2.549,2.446c0.805,0,1.626-0.322,2.182-0.894l0.527,0.718c-0.703,0.703-1.655,1.084-2.812,1.084
				C188.44,475.465,186.932,473.956,186.932,471.744z M190.403,468.947c-1.509,0-2.256,1.274-2.314,2.358h4.643
				C192.718,470.25,192.015,468.947,190.403,468.947z"/>
			<path style="fill:#222221;" d="M194.607,474.351l0.571-0.791c0.469,0.542,1.362,1.011,2.329,1.011c1.084,0,1.67-0.513,1.67-1.216
				c0-1.714-4.38-0.659-4.38-3.281c0-1.098,0.952-2.036,2.636-2.036c1.201,0,2.051,0.454,2.622,1.026l-0.513,0.762
				c-0.424-0.513-1.201-0.894-2.109-0.894c-0.967,0-1.567,0.483-1.567,1.113c0,1.552,4.38,0.527,4.38,3.281
				c0,1.187-0.952,2.138-2.783,2.138C196.306,475.465,195.325,475.113,194.607,474.351z"/>
			<path style="fill:#222221;" d="M201.477,466.471c0-0.41,0.337-0.747,0.732-0.747c0.41,0,0.747,0.337,0.747,0.747
				c0,0.41-0.337,0.732-0.747,0.732C201.814,467.203,201.477,466.881,201.477,466.471z M201.667,475.289v-7.075h1.099v7.075H201.667
				z"/>
			<path style="fill:#222221;" d="M204.582,477.105l0.556-0.82c0.586,0.703,1.289,0.967,2.3,0.967c1.172,0,2.27-0.571,2.27-2.124
				v-1.011c-0.513,0.718-1.377,1.26-2.373,1.26c-1.845,0-3.149-1.377-3.149-3.662c0-2.27,1.289-3.677,3.149-3.677
				c0.952,0,1.802,0.469,2.373,1.245v-1.069h1.098v6.87c0,2.344-1.641,3.076-3.369,3.076
				C206.237,478.16,205.417,477.926,204.582,477.105z M209.709,473.253v-3.091c-0.381-0.615-1.23-1.143-2.109-1.143
				c-1.421,0-2.27,1.128-2.27,2.695c0,1.553,0.849,2.695,2.27,2.695C208.478,474.41,209.328,473.868,209.709,473.253z"/>
			<path style="fill:#222221;" d="M217.413,475.289v-4.629c0-1.245-0.63-1.641-1.582-1.641c-0.865,0-1.685,0.527-2.095,1.099v5.17
				h-1.099v-7.075h1.099v1.025c0.498-0.586,1.465-1.201,2.519-1.201c1.48,0,2.256,0.747,2.256,2.285v4.966H217.413z"/>
			<path style="fill:#222221;" d="M219.932,471.744c0-2.051,1.465-3.706,3.486-3.706c2.139,0,3.398,1.67,3.398,3.794v0.279h-5.727
				c0.088,1.333,1.025,2.446,2.549,2.446c0.806,0,1.626-0.322,2.183-0.894l0.527,0.718c-0.703,0.703-1.655,1.084-2.812,1.084
				C221.441,475.465,219.932,473.956,219.932,471.744z M223.404,468.947c-1.509,0-2.256,1.274-2.314,2.358h4.643
				C225.718,470.25,225.015,468.947,223.404,468.947z"/>
			<path style="fill:#222221;" d="M233.35,475.289v-1.055c-0.527,0.718-1.392,1.23-2.388,1.23c-1.846,0-3.149-1.406-3.149-3.706
				c0-2.256,1.289-3.721,3.149-3.721c0.952,0,1.817,0.469,2.388,1.245v-3.765h1.098v9.77H233.35z M233.35,473.37v-3.208
				c-0.396-0.615-1.245-1.143-2.124-1.143c-1.421,0-2.27,1.172-2.27,2.739c0,1.567,0.849,2.724,2.27,2.724
				C232.105,474.483,232.954,473.986,233.35,473.37z"/>
			<path style="fill:#222221;" d="M239.692,475.289v-9.77h1.098v3.765c0.572-0.776,1.421-1.245,2.388-1.245
				c1.845,0,3.149,1.465,3.149,3.721c0,2.299-1.304,3.706-3.149,3.706c-0.996,0-1.86-0.513-2.388-1.23v1.055H239.692z
				 M242.9,474.483c1.436,0,2.285-1.157,2.285-2.724c0-1.568-0.85-2.739-2.285-2.739c-0.864,0-1.728,0.527-2.109,1.143v3.208
				C241.171,473.986,242.036,474.483,242.9,474.483z"/>
			<path style="fill:#222221;" d="M247.528,477.061c0.161,0.073,0.425,0.117,0.601,0.117c0.483,0,0.805-0.161,1.055-0.747
				l0.469-1.069l-2.959-7.148h1.187l2.358,5.8l2.344-5.8h1.201l-3.545,8.51c-0.425,1.025-1.143,1.421-2.08,1.435
				c-0.234,0-0.601-0.044-0.805-0.103L247.528,477.061z"/>
		</g>
	</g>
</g>
</svg>
